<svg xmlns="http://www.w3.org/2000/svg" viewBox="0 0 612.83 349.37"><defs><style>.cls-1{fill:#f0cd95;}.cls-2{fill:#feeccb;}.cls-3{fill:#3ac1b0;}.cls-11,.cls-4{fill:#14345a;}.cls-5{fill:#1e81ad;}.cls-6{fill:#f4424f;}.cls-7{fill:#fff;}.cls-8{fill:#f9867d;}.cls-9{fill:#f2d525;}.cls-10{fill:#d62d41;}.cls-11{font-size:12.38px;font-family:Montserrat-Bold, Montserrat;font-weight:700;}</style></defs><g id="Layer_2" data-name="Layer 2"><g id="OBJECTS"><ellipse class="cls-1" cx="258.09" cy="318.38" rx="104.18" ry="4.38"/><path class="cls-1" d="M433.23,333.77c0,2.1-13.5,3.8-30.15,3.8s-30.15-1.7-30.15-3.8,13.49-3.8,30.15-3.8S433.23,331.67,433.23,333.77Z"/><path class="cls-1" d="M601.42,77.32c-8.92-13.43-23.76-23.58-39.76-22.89-14.12.61-26.44,9.16-39.15,15.35s-28.9,9.84-40.26,1.41c-7.74-5.73-11-15.5-15.55-24C451,17.59,416.93.42,383.46,0s-65.88,14.11-92,35.08S244.94,83.16,226.38,111c-14.14,21.24-31.3,45.54-56.78,46.79-22.71,1.11-42.14-17.17-64.74-19.7C77.59,135.06,53.71,155,33.58,173.69a542.81,542.81,0,0,0,2.64,105.06h565.2Z"/><polygon class="cls-2" points="499.64 182.41 509 182.41 461.4 126.25 437.25 154.74 437.25 144.87 426.68 144.87 426.68 167.21 413.8 182.41 423.16 182.41 423.16 212.81 418.22 212.81 418.22 219.15 423.16 219.15 423.16 279.61 499.64 279.61 499.64 219.15 505.99 219.15 505.99 212.81 499.64 212.81 499.64 182.41"/><rect class="cls-1" x="449.14" y="160.21" width="8.9" height="8.9"/><rect class="cls-1" x="459.76" y="160.21" width="8.9" height="8.9"/><rect class="cls-1" x="449.14" y="170.74" width="8.9" height="8.9"/><rect class="cls-1" x="459.76" y="170.74" width="8.9" height="8.9"/><rect class="cls-1" x="436.31" y="230.5" width="8.9" height="8.9"/><rect class="cls-1" x="446.93" y="230.5" width="8.9" height="8.9"/><rect class="cls-1" x="436.31" y="241.03" width="8.9" height="8.9"/><rect class="cls-1" x="446.93" y="241.03" width="8.9" height="8.9"/><rect class="cls-1" x="469.96" y="230.5" width="8.9" height="8.9"/><rect class="cls-1" x="480.57" y="230.5" width="8.9" height="8.9"/><rect class="cls-1" x="469.96" y="241.03" width="8.9" height="8.9"/><rect class="cls-1" x="480.57" y="241.03" width="8.9" height="8.9"/><polygon class="cls-2" points="276.38 206.28 283.45 206.28 247.53 163.91 229.31 185.4 229.31 177.95 221.34 177.95 221.34 194.81 211.62 206.28 218.68 206.28 218.68 229.21 214.96 229.21 214.96 234 218.68 234 218.68 279.61 276.38 279.61 276.38 234 281.17 234 281.17 229.21 276.38 229.21 276.38 206.28"/><rect class="cls-1" x="238.28" y="189.53" width="6.72" height="6.72"/><rect class="cls-1" x="246.29" y="189.53" width="6.72" height="6.72"/><rect class="cls-1" x="238.28" y="197.47" width="6.72" height="6.72"/><rect class="cls-1" x="246.29" y="197.47" width="6.72" height="6.72"/><rect class="cls-1" x="228.6" y="242.56" width="6.72" height="6.72"/><rect class="cls-1" x="236.61" y="242.56" width="6.72" height="6.72"/><rect class="cls-1" x="228.6" y="250.5" width="6.72" height="6.72"/><rect class="cls-1" x="236.61" y="250.5" width="6.72" height="6.72"/><rect class="cls-1" x="253.99" y="242.56" width="6.72" height="6.72"/><rect class="cls-1" x="261.99" y="242.56" width="6.72" height="6.72"/><rect class="cls-1" x="253.99" y="250.5" width="6.72" height="6.72"/><rect class="cls-1" x="261.99" y="250.5" width="6.72" height="6.72"/><polygon class="cls-2" points="392.36 198.09 400.83 198.09 357.79 147.31 335.95 173.07 335.95 164.14 326.4 164.14 326.4 184.34 314.75 198.09 323.21 198.09 323.21 232.15 319.75 232.15 319.75 236.62 323.21 236.62 323.21 284.76 392.36 284.76 392.36 236.62 395.39 236.62 395.39 232.15 392.36 232.15 392.36 198.09"/><rect class="cls-1" x="327.8" y="200.35" width="7.02" height="7.02"/><rect class="cls-1" x="336.17" y="200.35" width="7.02" height="7.02"/><rect class="cls-1" x="327.8" y="208.66" width="7.02" height="7.02"/><rect class="cls-1" x="336.17" y="208.66" width="7.02" height="7.02"/><rect class="cls-1" x="349.73" y="200.35" width="7.02" height="7.02"/><rect class="cls-1" x="358.1" y="200.35" width="7.02" height="7.02"/><rect class="cls-1" x="349.73" y="208.66" width="7.02" height="7.02"/><rect class="cls-1" x="358.1" y="208.66" width="7.02" height="7.02"/><rect class="cls-1" x="371.65" y="200.35" width="7.02" height="7.02"/><rect class="cls-1" x="380.03" y="200.35" width="7.02" height="7.02"/><rect class="cls-1" x="371.65" y="208.66" width="7.02" height="7.02"/><rect class="cls-1" x="380.03" y="208.66" width="7.02" height="7.02"/><path class="cls-1" d="M338.56,253.8H331.7v-.07a6.79,6.79,0,0,1,6.79-6.78h.07Z"/><path class="cls-1" d="M346.73,253.8h-6.86V247h.07a6.79,6.79,0,0,1,6.79,6.78Z"/><rect class="cls-1" x="331.7" y="255.06" width="6.85" height="6.85"/><rect class="cls-1" x="339.87" y="255.06" width="6.85" height="6.85"/><path class="cls-1" d="M375.18,253.8h-6.86v-.07a6.79,6.79,0,0,1,6.79-6.78h.07Z"/><path class="cls-1" d="M383.35,253.8h-6.86V247h.07a6.79,6.79,0,0,1,6.79,6.78Z"/><rect class="cls-1" x="368.32" y="255.06" width="6.85" height="6.85"/><rect class="cls-1" x="376.49" y="255.06" width="6.85" height="6.85"/><rect class="cls-3" x="496.42" y="84.59" width="116.41" height="221.52"/><rect class="cls-4" x="502.39" y="90.7" width="104.12" height="215.51"/><rect class="cls-5" x="523.02" y="92.41" width="83.49" height="213.79"/><rect class="cls-1" x="486.79" y="306.53" width="125.94" height="7.54"/><rect class="cls-1" x="476.74" y="313.76" width="125.94" height="7.54"/><path class="cls-2" d="M517.65,173.32a3.23,3.23,0,1,1-3.22-3.22A3.22,3.22,0,0,1,517.65,173.32Z"/><path class="cls-6" d="M529.91,66.27a35,35,0,1,0-61.2,23.09,234.44,234.44,0,0,1,19.69,25.09l6.55,9.88,4.68-7a209.36,209.36,0,0,1,20.93-27.22A34.84,34.84,0,0,0,529.91,66.27Z"/><circle class="cls-7" cx="494.95" cy="66.27" r="18.81"/><rect class="cls-6" x="491.3" y="213.33" width="4.3" height="2.92"/><path class="cls-6" d="M498.54,235.87H488.33v-17a4.17,4.17,0,0,1,4.17-4.16h1.88a4.16,4.16,0,0,1,4.16,4.16Z"/><rect class="cls-4" x="486.35" y="225.3" width="15.7" height="5.02"/><path class="cls-3" d="M489.9,209.9v1.37h-3a2,2,0,0,0-1.72,2.24h1.11s-.08-1.16.78-1.34a8.9,8.9,0,0,1,2.85.66v1.36h6.81V209.9Z"/><rect class="cls-4" x="496.89" y="255.37" width="61.55" height="51.23"/><rect class="cls-3" x="486.58" y="255.37" width="61.55" height="51.23"/><polygon class="cls-1" points="530.68 284.64 515.72 267.06 500.75 284.64 508.5 284.64 508.5 290.01 522.94 290.01 522.94 284.64 530.68 284.64"/><path class="cls-8" d="M432.19,137.21c-5.17-1.77-6.27-3.15-9.68-7.41l-8.3,12.47A53.28,53.28,0,0,0,429,152.73C428.27,147.14,429.09,140.92,432.19,137.21Z"/><path class="cls-4" d="M429,145.15a15.93,15.93,0,0,1,3.15-7.94c-4.63-1.59-6-2.86-8.7-6.19C422.26,137,424.81,141.76,429,145.15Z"/><path class="cls-8" d="M441.68,122.67a6.31,6.31,0,0,0-3.23-4.7,15.2,15.2,0,0,0-5.63-1.72c-2.52-.37-5.31-.51-7.41,1a8.3,8.3,0,0,0-2.84,4.06,16.65,16.65,0,0,0,1.36,13.9c2.42,4.16,5.68,7.56,10.25,8.42,1.63-3,3-4.81,4.26-8.33.27-.77-.15-1.62,0-2s1.1-1,1.26-1.54c.74-2.3,1-3.72,1.59-6.06A9.19,9.19,0,0,0,441.68,122.67Z"/><path class="cls-4" d="M430,128.59a1.53,1.53,0,0,1,1.7-1.08,1.75,1.75,0,0,1,1.16,1.75,4,4,0,0,0,.11,2.19,24.9,24.9,0,0,1,3.42-5.4l-11.56-5.5a2.19,2.19,0,0,0-.93-.28,1.6,1.6,0,0,0-.81.27,4.67,4.67,0,0,0-2,3.28,22.54,22.54,0,0,0-.09,3.94,7.7,7.7,0,0,1-.76,3.83,13,13,0,0,0,6.67-1.14,3.91,3.91,0,0,1,2.73-.6A6.61,6.61,0,0,1,430,128.59Z"/><path class="cls-4" d="M427.44,115.4a12.34,12.34,0,0,1,6.29.26,18,18,0,0,1,6.6,2.81,4,4,0,0,1,1.5,1.83,4.73,4.73,0,0,1,.1,1.76c-.07,1-.13,1.91-.2,2.86a1.71,1.71,0,0,1-2.27,1.93c-3.22-.25-6.51-.52-9.47-1.83-1.93-.86-3.69-2.16-5.76-2.62a2.73,2.73,0,0,1-1.34-.53,2,2,0,0,1-.16-2.11A7.25,7.25,0,0,1,427.44,115.4Z"/><path class="cls-6" d="M434.42,115.16a38.66,38.66,0,0,1,6.34,2.91,3.85,3.85,0,0,1,1.84,1.74,3.79,3.79,0,0,1,0,2.11,42.29,42.29,0,0,1-1.83,6.35,35.76,35.76,0,0,1-16.22-4.53c-1.18-.66-2.46-1.62-2.45-3a4,4,0,0,1,.63-1.84,10.74,10.74,0,0,1,2.42-3.37,7,7,0,0,1,4.55-1.42A15.24,15.24,0,0,1,434.42,115.16Z"/><path class="cls-9" d="M441.78,123.56a5.83,5.83,0,0,0,.27-3.11,4.15,4.15,0,0,0-2.08-2.32,25.41,25.41,0,0,0-3-1.22,3.63,3.63,0,0,1,.64,2.27,9.07,9.07,0,0,1-.46,2.34,30.07,30.07,0,0,1-2.62,6,13.3,13.3,0,0,0,2.65.42,4.26,4.26,0,0,0,2.56-.71A6.42,6.42,0,0,0,441.78,123.56Z"/><path class="cls-6" d="M441.06,126.73c1.22,0,1.31.86,5.52,2.32-2.34,1.43-4.51,2-7.1,1.08a57.5,57.5,0,0,1-7.39-3.21C435,127.61,438.06,126.61,441.06,126.73Z"/><path class="cls-4" d="M424.71,118.66a.7.7,0,0,0-.33-.43.73.73,0,0,0-.53-.21c-.19,0-.31.22-.41.39a3,3,0,0,0-.52,1.3,1,1,0,0,0,.71,1.08l1-1.75A.74.74,0,0,0,424.71,118.66Z"/><path class="cls-7" d="M439.1,136.19c-.13-.5-.16-1.16-.6-1.42a2.53,2.53,0,0,0-1.22-.23c-2.1,0-2.36.22-4.46.26-.75,1.95-2.73,3.14-3.8,4.93.71.81.91,2.56,1.89,3a21.89,21.89,0,0,0,3.07,1,1.56,1.56,0,0,0,1,0,1.53,1.53,0,0,0,.45-.39c.47-.52.74-1,1.21-1.47a15.11,15.11,0,0,0,2.18-2.69A3.91,3.91,0,0,0,439.1,136.19Z"/><path class="cls-7" d="M430.14,140.74H430c-.7-.19-1.17-.86-1.4-2a18.15,18.15,0,0,1,.68-9.66.38.38,0,1,1,.71.25,17.37,17.37,0,0,0-.66,9.26c.17.83.46,1.31.87,1.42a.36.36,0,0,1,.26.45A.37.37,0,0,1,430.14,140.74Z"/><path class="cls-7" d="M433.64,136.28a.36.36,0,0,1-.32-.18,7,7,0,0,1-.51-5.91.37.37,0,0,1,.48-.22.38.38,0,0,1,.22.48,6.25,6.25,0,0,0,.45,5.27.36.36,0,0,1-.13.51A.34.34,0,0,1,433.64,136.28Z"/><path class="cls-4" d="M474.32,200.39a21.56,21.56,0,0,1-3.16-4,3.35,3.35,0,0,1-.44-1,1.17,1.17,0,0,1,.2-1,2.46,2.46,0,0,1,1.31-.55,2.09,2.09,0,0,0,1.24-.86,1.25,1.25,0,0,0-.05-1.44c-1.74.87-3.88.06-5.77.54a11.89,11.89,0,0,0-2.49,1.14A21.42,21.42,0,0,1,461,191.4l0,.07c-15.18-9.64-31.39-32.21-38.08-42.27-7.91-3.95-12.72-1.38-11.87,6.19,4.7,27.41,29.51,40.29,46.36,43.94-.06.12-.12.24-.17.36,1.43.35,2.83.8,4.22,1.27a17.12,17.12,0,0,0,4.31,3.1,2.75,2.75,0,0,0,1.94.38c.6-.17,1.06-.71,1.68-.81s1,.13,1.45,0c.77-.15,1.22-1,2-1.26a5.88,5.88,0,0,1,1.19-.16,1,1,0,0,0,.92-.66C475,201.13,474.65,200.72,474.32,200.39Z"/><rect class="cls-6" x="460.44" y="187.98" width="42.55" height="7.05"/><rect class="cls-4" x="460.44" y="193.31" width="42.55" height="1.72"/><rect class="cls-6" x="466.72" y="181.1" width="42.55" height="7.05"/><rect class="cls-4" x="466.72" y="186.21" width="42.55" height="1.93"/><rect class="cls-6" x="462.46" y="194.51" width="42.55" height="7.05"/><path class="cls-7" d="M428.85,330.34c-.05-.5-.1-1-.16-1.5a181.77,181.77,0,0,1-19.39.42,4.5,4.5,0,0,0-1.32.08c-.42.11-.71-.13-.92.29s-.3,1.49,0,1.8c3.43.54,6.92.32,10.38.51a50,50,0,0,0,5.86.23A9.85,9.85,0,0,0,428.85,330.34Z"/><path class="cls-4" d="M418.61,331.09c3.51.15,7.21.21,10.3-1.45a3.93,3.93,0,0,0-2.21-3.23,13.28,13.28,0,0,0-3.94-1.11,9.2,9.2,0,0,1-3.84-1.35,3.53,3.53,0,0,1-1.54-3.55,60,60,0,0,1-9.38.28,31.58,31.58,0,0,0-1.12,9.77Q412.75,330.86,418.61,331.09Z"/><path class="cls-10" d="M416.79,323.67a.62.62,0,0,1,.47.12,17.69,17.69,0,0,0,7.76,2.32,2.54,2.54,0,0,1-1.9.86,7.33,7.33,0,0,1-2.12-.33c-1.54-.39-3.19-.84-4.2-2.07a1,1,0,0,1-.24-.46A.41.41,0,0,1,416.79,323.67Z"/><path class="cls-7" d="M417.85,326.31a.37.37,0,0,1-.28-.08.4.4,0,0,1-.08-.57A12.23,12.23,0,0,1,419,324a.4.4,0,0,1,.55.59,12,12,0,0,0-1.42,1.6A.39.39,0,0,1,417.85,326.31Z"/><path class="cls-7" d="M419.57,327a.39.39,0,0,1-.25-.06.41.41,0,0,1-.13-.56,7.93,7.93,0,0,1,1.3-1.59.42.42,0,0,1,.58,0,.41.41,0,0,1,0,.58,7.25,7.25,0,0,0-1.17,1.42A.42.42,0,0,1,419.57,327Z"/><path class="cls-7" d="M421.65,327.22a.34.34,0,0,1-.22,0,.41.41,0,0,1-.18-.55,6.31,6.31,0,0,1,1-1.38.41.41,0,0,1,.6.56A5.41,5.41,0,0,0,422,327,.42.42,0,0,1,421.65,327.22Z"/><path class="cls-4" d="M407.66,324.54h13.53c-.93-38.52.34-77.1,3.23-115.49a45.94,45.94,0,0,1-22.57-4.49l-6.07-.36c-5.66,21.7-2.62,45,1.9,67C401.32,288.92,405.9,306.56,407.66,324.54Z"/><path class="cls-7" d="M421.18,331.86c-.06-.49-.12-1-.17-1.49q-10.42.72-20.88.42a5.17,5.17,0,0,0-1.42.08c-.46.11-.77-.13-1,.29s-.32,1.49,0,1.8c3.69.53,7.45.31,11.18.51a57.68,57.68,0,0,0,6.3.23A11.13,11.13,0,0,0,421.18,331.86Z"/><path class="cls-4" d="M410.17,332.4c3.74.16,7.69.22,11-1.55a4.17,4.17,0,0,0-2.36-3.44,13.85,13.85,0,0,0-4.2-1.19,9.79,9.79,0,0,1-4.1-1.45,3.71,3.71,0,0,1-1.64-3.78,63.2,63.2,0,0,1-10,.29,33.71,33.71,0,0,0-1.2,10.43Q403.91,332.15,410.17,332.4Z"/><path class="cls-10" d="M408.65,323.58a.64.64,0,0,1,.47.16,17.72,17.72,0,0,0,7.53,3,2.54,2.54,0,0,1-2,.69,7.11,7.11,0,0,1-2.08-.5c-1.51-.52-3.11-1.11-4-2.42a.93.93,0,0,1-.2-.48A.4.4,0,0,1,408.65,323.58Z"/><path class="cls-7" d="M409.49,326.3a.41.41,0,0,1-.27-.1.42.42,0,0,1,0-.58,13,13,0,0,1,1.66-1.57.4.4,0,0,1,.57.07.41.41,0,0,1-.06.57,11.34,11.34,0,0,0-1.55,1.47A.43.43,0,0,1,409.49,326.3Z"/><path class="cls-7" d="M411.15,327.11a.41.41,0,0,1-.24-.08.41.41,0,0,1-.09-.57,7.43,7.43,0,0,1,1.44-1.47.41.41,0,0,1,.57.06.4.4,0,0,1-.07.57,7,7,0,0,0-1.28,1.33A.44.44,0,0,1,411.15,327.11Z"/><path class="cls-7" d="M413.2,327.53a.43.43,0,0,1-.22-.06.42.42,0,0,1-.13-.57,6.07,6.07,0,0,1,1.08-1.29.4.4,0,0,1,.57,0,.41.41,0,0,1,0,.58,5.22,5.22,0,0,0-.93,1.11A.39.39,0,0,1,413.2,327.53Z"/><path class="cls-6" d="M397.28,324.54h15.94c-.73-38.94,5.32-77.1,8.21-115.49a45.9,45.9,0,0,1-22.56-4.49l-6.07-.36c-5.67,21.7-2.63,45,1.9,67C398.33,288.92,396.92,305.88,397.28,324.54Z"/><path class="cls-10" d="M421.43,209.05a44.71,44.71,0,0,1-10.33-.6c-3,38.3-6.42,77.66-1.86,116.09h4C412.49,285.6,418.54,247.44,421.43,209.05Z"/><rect class="cls-4" x="391.94" y="212.26" width="31.33" height="3.62"/><rect class="cls-6" x="400.45" y="211.63" width="1.54" height="4.89"/><rect class="cls-6" x="416.16" y="211.63" width="1.54" height="4.89"/><path class="cls-6" d="M413.67,141.2c-10.61,10.13-15.48,19.09-19.54,33.19-3.56,12.38-5.05,22.8-6.39,35a4.18,4.18,0,0,0,4.65,4.59c10.36-1.21,18.83-1.72,29.08.34a3.36,3.36,0,0,0,4-3.35c0-14.67,8.12-30.87,7.84-37.9-.24-6.34-1.42-9.09-2.55-15.34-.26-1.49-.55-3.16-.79-4.9-5.95-2.9-11.45-7.49-16.07-12Z"/><path class="cls-10" d="M430.78,157.77c-.26-1.49-.55-3.16-.79-4.9a59.32,59.32,0,0,1-13.54-9.62c-9.62,10.23.91,24.15-2.08,36.13-2.06,9.28-8.25,16.5-6.19,25.79,0,1,1,4.12,1,5.16A24.88,24.88,0,0,1,406,213a70.63,70.63,0,0,1,15.43,1.38,3.36,3.36,0,0,0,4-3.35c0-14.67,8.12-30.87,7.84-37.9C433.09,166.77,431.91,164,430.78,157.77Z"/><path class="cls-4" d="M408.72,161.42a43.86,43.86,0,0,0,18.45,29.84l2.76-8.81a45.55,45.55,0,0,1-17.87-31.62,7.16,7.16,0,0,0-3.29,4.71A16.14,16.14,0,0,0,408.72,161.42Z"/><path class="cls-7" d="M415.43,139.38l-3.23,2.84a168.29,168.29,0,0,1,15.61,14.11c.25-1.56.5-2.9,1.79-3.81.34.59.39,2.56.73,3.15.78-1.46,1.28-4.82.29-6.15a13.37,13.37,0,0,0-3.84-3.11Z"/><path class="cls-9" d="M405.42,153.86a.61.61,0,0,0-.91-.44,3.36,3.36,0,0,0-1,1A45.32,45.32,0,0,0,396,171a5.77,5.77,0,0,0-.22,1.53c0,.49.2.94.49.95s.57-.38.82-.74a68.73,68.73,0,0,0,8.07-16.78A3.92,3.92,0,0,0,405.42,153.86Z"/><path class="cls-6" d="M421.42,150.33c-7.91-4-12.72-1.38-11.87,6.18,5.16,30.09,34.54,42.67,51,44.76,2.92-.15,4.05-4,4.61-5.68C448.57,188.87,429,161.66,421.42,150.33Z"/><path class="cls-7" d="M472.82,201.52a21.56,21.56,0,0,1-3.16-4,3.53,3.53,0,0,1-.44-1,1.18,1.18,0,0,1,.2-1,2.46,2.46,0,0,1,1.31-.55,2.05,2.05,0,0,0,1.24-.86,1.25,1.25,0,0,0-.05-1.44c-1.74.87-3.88.06-5.77.54a13,13,0,0,0-2.49,1.14,21.38,21.38,0,0,1-4.13-1.88q-1.89,4.14-3.79,8.29c1.43.35,2.83.79,4.22,1.27a17.08,17.08,0,0,0,4.31,3.09,2.75,2.75,0,0,0,1.94.39c.6-.17,1.06-.71,1.68-.81s1,.12,1.45,0c.77-.15,1.22-1,2-1.26a6.68,6.68,0,0,1,1.19-.16,1,1,0,0,0,.92-.66C473.53,202.26,473.15,201.84,472.82,201.52Z"/><path class="cls-9" d="M413.25,159.37a4.86,4.86,0,0,0,.14,2.64,4.94,4.94,0,0,0,5.09,3.27,5.28,5.28,0,0,0,4.32-3.63,5.47,5.47,0,0,0-1.52-5.46A4.3,4.3,0,0,0,417.5,155,5.8,5.8,0,0,0,413.25,159.37Z"/><path class="cls-4" d="M85.91,317l-73,31.36c-7.75,3.09-14-1.44-12.69-8.37V57.9a9.1,9.1,0,0,1,12.69-8.36l73,31.35a6.87,6.87,0,0,1,4.16,6.32v223.5A6.86,6.86,0,0,1,85.91,317Z"/><path class="cls-5" d="M85.26,314,13.51,345.19a3.8,3.8,0,0,1-5.3-3.53V57c0-2.76,5.7-4.33,8.2-3.24L85.26,84.61a1.89,1.89,0,0,1,1.12,1.73v226A1.86,1.86,0,0,1,85.26,314Z"/><path class="cls-7" d="M86.46,312.33l-71.75,30.8a3.8,3.8,0,0,1-5.3-3.49V58.16c0-2.73,5.7-4.28,8.21-3.21L86.46,85.47a1.85,1.85,0,0,1,1.12,1.7V310.62A1.85,1.85,0,0,1,86.46,312.33Z"/><path class="cls-3" d="M87,309,18.59,339.32a3.63,3.63,0,0,1-5.05-3.43V58.82a3.63,3.63,0,0,1,5.05-3.44L87,85.7a1.83,1.83,0,0,1,1.07,1.68V307.32A1.81,1.81,0,0,1,87,309Z"/><polygon class="cls-2" points="81.6 299.04 26.41 315.79 26.41 164.5 81.6 174.74 81.6 299.04"/><polygon class="cls-4" points="60.3 175.11 60.3 301.38 79.91 295.42 79.91 178.75 60.3 175.11"/><polygon class="cls-4" points="58.49 174.78 28.11 169.14 28.11 311.14 58.49 301.92 58.49 174.78"/><polygon class="cls-2" points="27.2 210.83 27.03 210.83 26.84 209.86 51.42 199.72 51.81 200.64 27.22 210.79 27.2 210.74 27.2 210.83"/><polygon class="cls-9" points="64.64 205.98 52.44 206.81 25.77 163.56 38.52 165.25 64.64 205.98"/><polygon class="cls-6" points="74.6 205.3 63.7 206.05 37.54 165.12 49.03 166.64 74.6 205.3"/><polygon class="cls-9" points="83.54 204.69 73.76 205.36 48.14 166.52 58.54 167.9 83.54 204.69"/><polygon class="cls-6" points="91.62 204.14 82.78 204.75 57.73 167.79 67.19 169.04 91.62 204.14"/><polygon class="cls-9" points="98.95 203.64 90.94 204.19 66.46 168.94 75.1 170.09 98.95 203.64"/><polygon class="cls-6" points="105.64 203.19 98.33 203.68 74.43 170 82.36 171.05 105.64 203.19"/><path class="cls-2" d="M75.27,152l-48.21-8.19a4,4,0,0,1-3.3-3.9v-23a4,4,0,0,1,4.83-3.86L76.74,124a4,4,0,0,1,3.08,3.85l.06,20.26A4,4,0,0,1,75.27,152Z"/><text class="cls-11" transform="matrix(1, 0.17, 0, 1, 28.52, 133.08)">ORDER</text><polygon class="cls-4" points="75.99 85.56 75.99 86.69 75.06 86.35 75.07 89.36 75.99 89.7 76 90.84 84.97 94.14 84.96 88.86 75.99 85.56"/><polygon class="cls-4" points="20.16 69.63 18.44 69.08 18.44 66.72 20.16 67.26 20.16 69.63"/><polygon class="cls-4" points="23 70.52 21.28 69.98 21.27 66.3 22.99 66.84 23 70.52"/><polygon class="cls-4" points="25.83 71.42 24.11 70.87 24.1 65.43 25.82 65.97 25.83 71.42"/><polygon class="cls-4" points="28.67 72.31 26.95 71.77 26.93 64.95 28.66 65.49 28.67 72.31"/><path class="cls-4" d="M68.24,76.52c-7-2.8-13.86-6.15-20.86-9q2.38,4.06,4.79,8.12l12.58,4.23A21.94,21.94,0,0,0,68.24,76.52Z"/><path class="cls-5" d="M6.52,129.83V101.14a1.54,1.54,0,0,0-3.07,0v28.69Z"/><path class="cls-5" d="M3.45,134.08v30.1a1.54,1.54,0,0,0,3.07,0v-30.1Z"/><circle class="cls-5" cx="4.59" cy="87.19" r="2.58"/><path class="cls-6" d="M186.92,292.69h-9.18c-64,0-115.81.65-115.81,1.45s51.85,1.45,115.81,1.45h9.18Z"/><path class="cls-6" d="M192.07,283.74h-3.34c-23.31,0-42.21.5-42.21,1.11s18.9,1.12,42.21,1.12h3.34Z"/><path class="cls-6" d="M188,258.33h-4.86c-33.87,0-61.33.41-61.33.91s27.46.91,61.33.91H188Z"/><circle class="cls-4" cx="206.08" cy="294.43" r="25"/><circle class="cls-3" cx="206.08" cy="294.43" r="16.21"/><path class="cls-4" d="M294.26,293.55c2.83-3.07,3.78-7.58,5.27-11.63A37.52,37.52,0,0,1,314.71,263a43.77,43.77,0,0,0,5.4-3.46,8.89,8.89,0,0,0,3.29-5.62,13.31,13.31,0,0,0-.83-5.24c-3.32-11.09-6.64-22.19-10.62-33-1-2.8-2.46-5.92-5.13-6.63-1.79-.48-3.63.29-5.33,1.05-5.23,2.36-10.76,5.17-13.62,10.52-2,3.82-2.42,8.43-2.29,12.85.29,9.65,2.76,19.06,3.85,28.65s.62,20-4.35,27.94c-1.1,1.77-2.39,3.37-3.59,5.05A9.93,9.93,0,0,0,294.26,293.55Z"/><path class="cls-6" d="M244.66,243.56c4.24.5,9,1.82,10.48,4.95,1.26,2.61-.19,5.48-1.21,8.15a26.93,26.93,0,0,0-.9,16.75c1.06,4,3.31,8,7.73,10.15,3.9,1.88,8.77,1.91,13.36,1.89,6.59,0,13.77-.23,18.84-3.52,2.19,5.06-2,10.73-7.82,13.5s-12.92,3.33-19.75,3.72c-24.89,1.41-49.89,1.5-74.83.65-4.08-.14-8.52-.42-11.53-2.58-3.69-2.65-3.84-7.07-3.74-11,.25-9,.7-18.47,7-26,3.86-4.64,9.69-8.15,16.06-10.57a101.13,101.13,0,0,1,20.26-4.93C227.16,243.42,236,242.56,244.66,243.56Z"/><path class="cls-4" d="M266.79,296.49c5.07-.29,10.25-.59,15-2.51s8.94-5.75,9.92-10.74c.18-.93.07-2.18-.83-2.47-1.71,4.19-6.12,6.71-10.54,7.62s-9,.53-13.51.65-9.24.83-12.83,3.57a4.63,4.63,0,0,0-1.54,1.78,2,2,0,0,0,.32,2.21,3.11,3.11,0,0,0,2.42.54Z"/><path class="cls-10" d="M204.39,252.64a87.59,87.59,0,0,1,37-4.55c2.71.22,5.87.86,7,3.33.75,1.66.3,3.58-.07,5.36a44.5,44.5,0,0,0,2.51,25.75,27.26,27.26,0,0,1,2.19,6.18,6.6,6.6,0,0,1-1.77,6c-1.7,1.48-4.18,1.54-6.43,1.52-14.29-.09-28.67-.19-42.75-2.64-4.28-.75-8.88-1.94-11.5-5.4s-2.5-8-2.2-12.25c.42-5.86,1.27-12.07,5.06-16.56C196.19,256.09,200.29,254.13,204.39,252.64Z"/><path class="cls-7" d="M314.8,190.87c1.47,3.4,1.47,7.24,1.4,10.94l-2.09.19a76.21,76.21,0,0,0-4.25-14,2.88,2.88,0,0,1,3.05.3A6,6,0,0,1,314.8,190.87Z"/><path class="cls-6" d="M315.64,204.21a31.82,31.82,0,0,0-2.86-13.45c-1-2.19-2.62-4.52-5-4.67a7,7,0,0,0-3.61,1,21.16,21.16,0,0,0-6.14,4.25c-2.86,3.08-4,7.36-5,11.44a3.48,3.48,0,0,0,0,2.36,2.76,2.76,0,0,0,2.67,1.19l1.29,4.15a.88.88,0,0,0,.34.56.94.94,0,0,0,.68,0l5-1.3a4.76,4.76,0,0,0,2.23-1,5.85,5.85,0,0,0,1-1.81,12.3,12.3,0,0,1,1-1.82Z"/><path class="cls-4" d="M302.08,195a6.05,6.05,0,0,0-5,1.23,3.64,3.64,0,0,0,3.6,6.27,6.27,6.27,0,0,0,3.59-3.48,3.15,3.15,0,0,0,.22-2.57A3.08,3.08,0,0,0,302.08,195Z"/><circle class="cls-4" cx="328.83" cy="294.43" r="25"/><circle class="cls-3" cx="328.83" cy="294.43" r="16.21"/><path class="cls-4" d="M319.4,301.81c3,2.66,7.67,1.94,11.32.3,2.16-1,4.36-2.36,5.14-4.6.7-2,.13-4.15-.47-6.16a198.94,198.94,0,0,0-9.58-25.52c-.79-1.74-1.83-3.67-3.69-4.14a12.52,12.52,0,0,1-1.86-.39c-.59-.25-1.08-.93-.81-1.5a36.93,36.93,0,0,0-9.18,4.17,5.37,5.37,0,0,0-2.47,2.56,5.78,5.78,0,0,0,.34,3.56q4,12.89,8.12,25.75C316.94,298,317.7,300.3,319.4,301.81Z"/><path class="cls-7" d="M326.34,300.61a5,5,0,1,1,5-5A5,5,0,0,1,326.34,300.61Zm0-9.28a4.27,4.27,0,1,0,4.27,4.27A4.27,4.27,0,0,0,326.34,291.33Z"/><path class="cls-4" d="M214.21,252.91c-6.81-1.33-14,.66-19.76,4.57s-10.08,9.6-13.24,15.77a99.13,99.13,0,0,0-7,19.56,4.81,4.81,0,0,0-.07,3.42,4.54,4.54,0,0,0,2.22,1.79c6.15,3,13.06,4,19.88,4.45a155.53,155.53,0,0,0,42.24-2.7,12.05,12.05,0,0,0,4.35-1.51,9.27,9.27,0,0,0,2.56-2.73,21.2,21.2,0,0,0,2.48-16.19,34.3,34.3,0,0,0-7.92-14.65,37.17,37.17,0,0,0-13.19-10,24.68,24.68,0,0,0-16.32-1.34"/><path class="cls-4" d="M216.49,251.93a1,1,0,0,1-1,1H164.74a1,1,0,0,1-1-1h0a1,1,0,0,1,1-1h50.72a1,1,0,0,1,1,1Z"/><path class="cls-6" d="M360.08,294.34c-.9-7.56-3.12-13.27-7.95-19a31.11,31.11,0,0,0-7.19-6.67c-9.09-6-21.06-7.12-30.36-1.53s-15,16.24-15.5,27.23Z"/><path class="cls-10" d="M302.17,292.86a22.23,22.23,0,0,1,44.31.38Z"/><path class="cls-7" d="M349.73,284.69a.38.38,0,0,1-.33-.2c-4.46-8.17-12.18-13.89-20.67-15.32-9-1.52-18.44,2.22-23.37,9.3a.37.37,0,0,1-.52.09.38.38,0,0,1-.1-.52c5.1-7.31,14.79-11.17,24.12-9.61,8.71,1.47,16.63,7.33,21.2,15.7a.38.38,0,0,1-.15.51A.41.41,0,0,1,349.73,284.69Z"/><path class="cls-4" d="M255.83,247.62c.91-.93.32-2.5-.43-3.57A23,23,0,0,0,243.78,236a59.32,59.32,0,0,0-14.15-2.43c-2.25-.19-4.68-.31-6.61.87-2.75,1.67-3.48,5.26-4,8.44-.33,2.23-.38,5.05,1.62,6.09a5.59,5.59,0,0,0,2.73.37l30.22-1A3.14,3.14,0,0,0,255.83,247.62Z"/><path class="cls-7" d="M246.44,246.15a.37.37,0,0,1-.31-.17A22.18,22.18,0,0,0,223,237.11a.38.38,0,1,1-.19-.73,23,23,0,0,1,24,9.18.37.37,0,0,1-.1.52A.33.33,0,0,1,246.44,246.15Z"/><path class="cls-7" d="M292.26,238.72c-.74-.86-2.11-.65-3.22-.36-1.71.44-3.69,1.11-4.26,2.79a5.33,5.33,0,0,0-.1,2.32q.69,6.65,1.37,13.3a2.74,2.74,0,0,0,3.1,2.44l3.25-.44a2.51,2.51,0,0,0,2.46-3.58q-1-7.41-2-14.8A3.13,3.13,0,0,0,292.26,238.72Z"/><polygon class="cls-7" points="286.42 236.63 286.85 239.81 290.03 239.08 289 236.03 286.42 236.63"/><path class="cls-6" d="M284.69,237.53a32.66,32.66,0,0,1,5.39-.74l-.3-3.35-5.62.73A14.1,14.1,0,0,0,284.69,237.53Z"/><path class="cls-6" d="M281.88,237a1,1,0,0,0,.16.95.6.6,0,0,0,.88,0,1.32,1.32,0,0,1,.6-1.28,2.9,2.9,0,0,1,1.42-.41,14.72,14.72,0,0,0,1.49-.12,2,2,0,0,1-.35-1.27c-.77.29-1.61.34-2.39.57A2.54,2.54,0,0,0,281.88,237Z"/><path class="cls-4" d="M296.1,249.73a60.49,60.49,0,0,0-1.12-8.9,12.86,12.86,0,0,1-10.55,7.8c.09.91.18,1.81.26,2.72A95.53,95.53,0,0,1,296.1,249.73Z"/><path class="cls-6" d="M165.84,202.06c-2.5,1.66-5,3.54-6.35,6.23-1.51,3.06-1.25,6.67-.9,10.07q1.18,11.61,3.18,23.11c.54,3.09,1.3,6.48,3.83,8.35,2.16,1.6,5.05,1.66,7.73,1.65l37.37-.06c2.2,0,4.69-.14,6.08-1.83,1.06-1.29,1.14-3.09,1.17-4.75q.48-24.22.94-48.45c0-1.95,0-4-1-5.66a8,8,0,0,0-4.34-3c-6.21-2.14-13.06-.87-19.36,1A105.57,105.57,0,0,0,165.84,202.06Z"/><path class="cls-9" d="M214.12,219.64a236.9,236.9,0,0,0-50.79,5.49q-.18-7.35-.35-14.71a133.58,133.58,0,0,1,51.36-15.13Q214.24,207.47,214.12,219.64Z"/><circle class="cls-9" cx="189.88" cy="234.44" r="9.41"/><path class="cls-7" d="M200.74,190.05c-9.17,1.64-17.94,5-26.5,8.66-4.73,2-9.7,4.39-12.4,8.77,2.75-2.94,7.07-5.28,10.81-6.78,6.54-2.64,11.69-4.68,18.39-6.88s14.7-3.87,21.53-2.39C209.25,189.06,204.76,189.34,200.74,190.05Z"/><path class="cls-6" d="M210.86,257c-6.82-1.32-14,.67-19.76,4.58S181,271.2,177.85,277.38a99.78,99.78,0,0,0-7,19.56,4.86,4.86,0,0,0-.06,3.42,4.54,4.54,0,0,0,2.22,1.79c6.15,3,13.06,4,19.87,4.45a155.51,155.51,0,0,0,42.24-2.7,12.23,12.23,0,0,0,4.36-1.51,9.27,9.27,0,0,0,2.56-2.73,21.25,21.25,0,0,0,2.48-16.19,34.39,34.39,0,0,0-7.92-14.66,37.15,37.15,0,0,0-13.19-10,24.62,24.62,0,0,0-16.32-1.34"/><path class="cls-9" d="M232.69,266.6h-1.15c.14,1.7-1.83,2.7-3.45,3.22-17.1,5.46-34.45,10.11-51.78,14.75q-1.94,6.94-3.86,13.9c21.82-.78,43.08-6.74,64.09-12.65,1.89-.54,4.06-1.34,4.6-3.23.44-1.54-.44-3.13-1.29-4.49Q236.28,272.35,232.69,266.6Z"/><path class="cls-7" d="M178.69,279.07l-.14,0a.37.37,0,0,1-.2-.49,32.63,32.63,0,0,1,45.1-16.82.37.37,0,0,1,.17.5.38.38,0,0,1-.51.16A31.91,31.91,0,0,0,179,278.83.38.38,0,0,1,178.69,279.07Z"/><path class="cls-4" d="M234.13,300.43a1,1,0,0,1-.76.8,40.93,40.93,0,0,1-10.82,1.13c-.36,0-.53-.32-.39-.68h0A1,1,0,0,1,223,301a39.61,39.61,0,0,0,10.54-1.1.44.44,0,0,1,.57.51Z"/><path class="cls-4" d="M234.62,297.5a1,1,0,0,1-.77.81A40.86,40.86,0,0,1,223,299.43c-.35,0-.52-.31-.39-.68h0a1,1,0,0,1,.87-.66A39.52,39.52,0,0,0,234,297a.44.44,0,0,1,.58.5Z"/><path class="cls-4" d="M235.1,294.58a1,1,0,0,1-.76.8,40.45,40.45,0,0,1-10.82,1.12c-.35,0-.53-.31-.39-.68h0a1,1,0,0,1,.86-.65,39.57,39.57,0,0,0,10.54-1.1.44.44,0,0,1,.57.51Z"/><path class="cls-6" d="M300.48,280.62A47.89,47.89,0,0,1,314,264.76c3.93-3,8.49-5.65,10.52-10.14,2.45-5.43.43-11.72-1.6-17.32q-3.29-9-6.56-18.1a31.07,31.07,0,0,0-3.51-6.89c-1.23-1.81-3.72-3.95-6.22-3.27,0,3.81-4.3,7.18-6.42,10.34-3.59,5.33-3.1,12.3-2.68,18.71.59,8.82.81,17.74-.68,26.46s-4.79,17.28-10.58,24c-1.06,1.23-2.29,2.74-1.8,4.29.55,1.73,2.88,2.13,4.64,1.67,3-.79,5.36-3.08,7.06-5.66A91.06,91.06,0,0,0,300.48,280.62Z"/><path class="cls-7" d="M303.36,235.11c1.33.17,2.34-1.19,2.8-2.46,1-2.7.91-5.72,2.17-8.3a18,18,0,0,0,1.23-2.54,2.63,2.63,0,0,0-.44-2.64,2.39,2.39,0,0,0-2.53-.37,5.46,5.46,0,0,0-2.08,1.68c-2.8,3.29-4.31,7.84-3.3,12C301.49,233.68,302.17,235,303.36,235.11Z"/><path class="cls-7" d="M287.49,289.35a.43.43,0,0,1-.24-.08.38.38,0,0,1-.05-.53c10.47-12.41,11.91-28.07,11.26-39-.15-2.7-.16-5.45-.16-8.11,0-2.2,0-4.47-.09-6.68l0-1c-.2-4.59-.41-9.33,2.23-13.23a37,37,0,0,1,2.5-3.23c1.85-2.23,3.6-4.33,4.54-8a.37.37,0,0,1,.72.18c-1,3.82-2.78,6-4.69,8.28-.81,1-1.66,2-2.45,3.17-2.5,3.69-2.29,8.31-2.1,12.78l0,1c.1,2.23.1,4.5.1,6.71,0,2.65,0,5.39.16,8.06.65,11.09-.8,27-11.43,39.55A.37.37,0,0,1,287.49,289.35Z"/></g></g></svg>